# xmcd
# Track frame offsets:
# 150
# 14211
# 27894
# 41049
# 53366
# 67698
# 80262
# 93399
# 104772
# 117168
# 127779
# 138585
# 151842
# 165159
# 179241
# 191982
# 202255
# 214922
# 226889
# 239480
# 252878
# 266235
# 276897
# 289409
# 301141
#
# Disc length: 4194 seconds
# Revision: 0
# Processed by: cddbd v1.5.2PL0 Copyright (c) Steve Scherf et al.
# Submitted via: VisiTrax 2.10.0.248 - For more info visit www.synapsa.com
#
DISCID=6f106019
DTITLE=Various Artist - The Great Australian Vintage Country - Volume 1
DYEAR=2006
DGENRE=
TTITLE0=Tex Morton - Murrumbidgee Jack
TTITLE1=Frank Ifield - Tnere'a A Love Knot In My Lariat
TTITLE2=McKean Sisters - Morning Mail
TTITLE3=Gil Harris - The Hobo's Meditation
TTITLE4=Buddy Williams - Riding Down The Wallaby Trail
TTITLE5=Arthur Blanche - Shearin' Time
TTITLE6=Tim McNamara - That Aussie Girl Of Mine
TTITLE7=Tim McNamara and The Mckean Sisters - Follow The Hillbillies
TTITLE8=Tex Morton - Sergeant Small
TTITLE9=Lily Connors - When Things Go Wrong
TTITLE10=Buddy Bishop - Spitfire The Outlaw
TTITLE11=Dusty Rankin - A Wasted Life
TTITLE12=Shorty Ranger - Hang It In The Henhouse
TTITLE13=Shorty Ranger - Teardrop Waltz
TTITLE14=Buddy Williams - The Gambling Polka Dot Blues
TTITLE15=Chad Morgan - You Can Have Your Women - I'll Stick To My Booze
TTITLE16=Reg Lindsay - Sundowner Yodel
TTITLE17=Shirley Thoms - My Sunny Queensland Home
TTITLE18=Smoky Dawson - New Wabash Cannon Ball
TTITLE19=The Singing Stockman - The Little Red Barn
TTITLE20=Gordon Parsons - Itchy Feet
TTITLE21=Smillin' Billy Blinkhorn - Back To The Old Cariboo
TTITLE22=Ron Peters - The Cowboy Who Never Milked A Cow
TTITLE23=Tim McNamara - Slippin' Around Sweet Georgia Brown
TTITLE24=Laurie Croisette - Gjost Town Jamboree
EXTD=
EXTT0=
EXTT1=
EXTT2=
EXTT3=
EXTT4=
EXTT5=
EXTT6=
EXTT7=
EXTT8=
EXTT9=
EXTT10=
EXTT11=
EXTT12=
EXTT13=
EXTT14=
EXTT15=
EXTT16=
EXTT17=
EXTT18=
EXTT19=
EXTT20=
EXTT21=
EXTT22=
EXTT23=
EXTT24=
PLAYORDER=
